<svg id="Слой_1" data-name="Слой 1" xmlns="http://www.w3.org/2000/svg" viewBox="0 0 151.15 68.23"><defs><style>.cls-1{fill:#0064a0}.cls-1,.cls-10,.cls-2,.cls-3,.cls-4,.cls-5,.cls-6,.cls-7,.cls-8,.cls-9{fill-rule:evenodd}.cls-2{fill:#006fab}.cls-3{fill:#007cba}.cls-4{fill:#0087c7}.cls-5{fill:#0092d5}.cls-6{fill:#009ee2}.cls-7{fill:#005992}.cls-8{fill:#004e86}.cls-9{fill:#00447b}.cls-10{fill:#003a6f}</style></defs><title>vesco_realty</title><path class="cls-1" d="M31.43 38.91l4.49 7.79-4.48 7.78-4.5-7.8 4.49-7.77z"/><path class="cls-2" d="M35.93 31.15l4.49 7.77-4.49 7.78-4.5-7.79 4.5-7.76z"/><path class="cls-3" d="M40.4 23.36l4.49 7.77-4.49 7.78-4.5-7.8 4.5-7.75z"/><path class="cls-4" d="M44.92 15.58l4.49 7.77-4.49 7.78-4.5-7.79 4.5-7.76z"/><path class="cls-5" d="M49.41 7.79l4.49 7.76-4.49 7.79-4.5-7.8 4.5-7.75z"/><path class="cls-6" d="M53.91.01l4.48 7.77-4.48 7.78-4.5-7.79 4.5-7.76z"/><path class="cls-7" d="M26.95 31.14l4.48 7.78-4.48 7.78-4.5-7.8 4.5-7.76z"/><path class="cls-8" d="M22.45 23.36l4.5 7.78-4.5 7.77-4.5-7.8 4.5-7.75z"/><path class="cls-9" d="M17.96 15.58l4.49 7.78-4.49 7.77-4.5-7.79 4.5-7.76z"/><path class="cls-10" d="M17.95 15.57l-4.48 7.79-4.51-7.8 8.99.01z"/><path class="cls-2" d="M13.47 23.35H4.5L0 15.58l9-.01 4.47 7.78z"/><path class="cls-3" d="M17.96 31.13H8.99l-4.5-7.78h9l4.47 7.78z"/><path class="cls-4" d="M22.45 38.9l-9 .01-4.49-7.77 9-.01 4.49 7.77z"/><path class="cls-5" d="M26.95 46.7l-9-.02-4.5-7.77 9-.01 4.5 7.8z"/><path class="cls-6" d="M31.41 54.48h-8.96l-4.5-7.78h9l4.46 7.78z"/><path class="cls-1" d="M40.43 7.78L44.91.01 53.9 0l-4.5 7.8-8.97-.02z"/><path class="cls-7" d="M35.95 15.55l4.48-7.76 8.98-.01-4.5 7.8-8.96-.03z"/><path class="cls-8" d="M31.44 23.35l4.48-7.77 8.99-.01-4.5 7.79-8.97-.01z"/><path class="cls-9" d="M26.95 31.14l4.49-7.78 8.98-.01-4.5 7.79h-8.97z"/><path class="cls-10" d="M26.95 31.14l8.98-.01-4.5 7.8-4.48-7.79z"/><path class="cls-1" d="M71.9 35.19a13.4 13.4 0 0 0-2.69-4.4A12 12 0 0 0 65.12 28a14.22 14.22 0 0 0-5.23-.93 14.75 14.75 0 0 0-5.48 1 13.19 13.19 0 0 0-4.4 2.74 12.93 12.93 0 0 0-2.95 4.35 14.57 14.57 0 0 0-1.09 5.74 13.79 13.79 0 0 0 1.14 5.8 11.61 11.61 0 0 0 3.05 4.24 12.33 12.33 0 0 0 4.5 2.64 16.08 16.08 0 0 0 5.48.93 15.53 15.53 0 0 0 6.93-1.45 11.67 11.67 0 0 0 4.76-4l-5.9-3.73a6.35 6.35 0 0 1-2.22 1.87 6.94 6.94 0 0 1-3.42.78 6 6 0 0 1-2.17-.36 6.23 6.23 0 0 1-1.91-1 5.5 5.5 0 0 1-1.4-1.5 4.25 4.25 0 0 1-.67-2h18.68a6 6 0 0 0 .05-1v-1a17.21 17.21 0 0 0-.97-5.93zm-17.8 2.64a5 5 0 0 1 .52-1.91 5.79 5.79 0 0 1 3.05-2.64 6.37 6.37 0 0 1 2.28-.36 4.81 4.81 0 0 1 3.83 1.45 5.18 5.18 0 0 1 1.24 3.47H54.1zM96.47 30.69a13.07 13.07 0 0 0-4.66-2.74 19.5 19.5 0 0 0-5.69-.88 15.3 15.3 0 0 0-3.73.47 12.42 12.42 0 0 0-3.47 1.55 8.25 8.25 0 0 0-2.54 2.64 7.47 7.47 0 0 0-1 4 6.55 6.55 0 0 0 .67 3.1A6.64 6.64 0 0 0 77.81 41a9 9 0 0 0 2.38 1.4 17.81 17.81 0 0 0 2.69.83 23.92 23.92 0 0 1 3.88 1.19A1.86 1.86 0 0 1 88 46.18a1.69 1.69 0 0 1-1 1.71 4.38 4.38 0 0 1-2.07.52 7.5 7.5 0 0 1-3.52-.83 10.33 10.33 0 0 1-2.79-2.07l-4.76 5a13.27 13.27 0 0 0 5.07 2.95 19.23 19.23 0 0 0 6.16 1 17 17 0 0 0 3.93-.47 12.16 12.16 0 0 0 3.57-1.5 8.1 8.1 0 0 0 2.54-2.74 7.72 7.72 0 0 0 1-4.09 6.82 6.82 0 0 0-.72-3.21 7.37 7.37 0 0 0-1.91-2.28 9.45 9.45 0 0 0-2.64-1.5 21.21 21.21 0 0 0-2.95-.88 21.35 21.35 0 0 1-3.57-1 1.58 1.58 0 0 1-1.14-1.55 1.64 1.64 0 0 1 1-1.6 5.12 5.12 0 0 1 2.17-.47 6.48 6.48 0 0 1 2.95.67 9.16 9.16 0 0 1 2.43 1.66zM122.32 30.54a13.07 13.07 0 0 0-1.81-1.45 16 16 0 0 0-2.33-1.09 24.57 24.57 0 0 0-2.64-.67 16.94 16.94 0 0 0-2.79-.26 16.75 16.75 0 0 0-5.64.93 14.14 14.14 0 0 0-4.61 2.74 12.46 12.46 0 0 0-3.05 4.35 13.48 13.48 0 0 0-1.14 5.69 13.72 13.72 0 0 0 1.14 5.74 12.26 12.26 0 0 0 3.05 4.29 13.31 13.31 0 0 0 4.61 2.74 17.07 17.07 0 0 0 5.69.93 16.75 16.75 0 0 0 5.38-.88 10.84 10.84 0 0 0 4.14-2.43l-4.71-5.74a4.73 4.73 0 0 1-2 1.4 6.6 6.6 0 0 1-2.59.52 5.48 5.48 0 0 1-2.48-.52 5.37 5.37 0 0 1-1.91-1.45 5.28 5.28 0 0 1-1.24-2.07 8.15 8.15 0 0 1-.41-2.54 6.89 6.89 0 0 1 .47-2.54 6.6 6.6 0 0 1 1.19-2.12 6.44 6.44 0 0 1 1.86-1.45 5.4 5.4 0 0 1 2.43-.52 6.23 6.23 0 0 1 2.54.57 4.87 4.87 0 0 1 2 1.5z"/><path class="cls-1" d="M142.61 43.11a6.61 6.61 0 0 1-1.19 2.12 5.09 5.09 0 0 1-1.91 1.55 6.4 6.4 0 0 1-5.28 0 5.09 5.09 0 0 1-1.91-1.55 6.47 6.47 0 0 1-1.14-2.12 7.35 7.35 0 0 1 0-4.86 6.47 6.47 0 0 1 1.14-2.12 5.3 5.3 0 0 1 1.86-1.45 6.4 6.4 0 0 1 5.28 0 6 6 0 0 1 1.91 1.45 6.6 6.6 0 0 1 1.19 2.12 7.81 7.81 0 0 1 .05 4.86zm7.4-8.12a13.09 13.09 0 0 0-3.1-4.29 13.43 13.43 0 0 0-4.55-2.69 16.77 16.77 0 0 0-11 0 13 13 0 0 0-4.55 2.69 13.1 13.1 0 0 0-3.1 4.3 14.8 14.8 0 0 0 0 11.38 13.31 13.31 0 0 0 3.1 4.35 14 14 0 0 0 4.55 2.79 15.93 15.93 0 0 0 11 0 14.59 14.59 0 0 0 4.55-2.79 13.3 13.3 0 0 0 3.1-4.35 14.8 14.8 0 0 0 0-11.38zM58.71 62.54a.93.93 0 0 1-.37.33 1.7 1.7 0 0 1-.51.15 2.88 2.88 0 0 1-.56.05h-1V61h1.16a3.54 3.54 0 0 1 .51 0 1.7 1.7 0 0 1 .47.14 1 1 0 0 1 .34.31 1.07 1.07 0 0 1 0 1.08zm2.79 5.69l-2.35-3.86a2.68 2.68 0 0 0 1.37-.89 2.4 2.4 0 0 0 .5-1.54 2.65 2.65 0 0 0-.29-1.3 2.46 2.46 0 0 0-.78-.84 3.29 3.29 0 0 0-1.11-.46 6.07 6.07 0 0 0-1.27-.13h-3.44v9h2.12v-3.58h.74l2 3.58h2.55zM68.81 68.22v-1.85h-4.19V64.5h3.74v-1.75h-3.74v-1.7h3.96v-1.83h-6.06v9h6.29zM75.31 64.71h-2.26l1.15-3.09zm3.72 3.51l-3.74-9h-2.11l-3.78 9h2.37l.66-1.77h3.49l.7 1.77h2.42zM85.52 68.22v-1.89h-3.49v-7.11h-2.19v9h5.68zM92.11 61.07v-1.85h-7.27v1.85h2.54v7.15h2.18v-7.15h2.55zM101.44 59.22h-2.55l-1.92 3.33-1.92-3.33h-2.64l3.39 5.19v3.81h2.17v-3.81l3.47-5.19z"/></svg>