<svg width="20" height="20" viewBox="0 0 20 20" fill="none" xmlns="http://www.w3.org/2000/svg">
<g id="24 / shopping / discount">
<path id="icon" fill-rule="evenodd" clip-rule="evenodd" d="M10.0007 19.1667C4.93804 19.1667 0.833984 15.0626 0.833984 10C0.833984 4.93739 4.93804 0.833336 10.0007 0.833336C15.0633 0.833336 19.1673 4.93739 19.1673 10C19.1673 15.0626 15.0633 19.1667 10.0007 19.1667ZM10.0007 17.5C14.1428 17.5 17.5007 14.1421 17.5007 10C17.5007 5.85787 14.1428 2.5 10.0007 2.5C5.85852 2.5 2.50065 5.85787 2.50065 10C2.50065 14.1421 5.85852 17.5 10.0007 17.5ZM10.834 12.5C10.834 13.8807 11.9533 15 13.334 15C14.7147 15 15.834 13.8807 15.834 12.5C15.834 11.1193 14.7147 10 13.334 10C11.9533 10 10.834 11.1193 10.834 12.5ZM13.334 13.3333C13.7942 13.3333 14.1673 12.9602 14.1673 12.5C14.1673 12.0398 13.7942 11.6667 13.334 11.6667C12.8737 11.6667 12.5007 12.0398 12.5007 12.5C12.5007 12.9602 12.8737 13.3333 13.334 13.3333ZM4.16732 7.5C4.16732 8.88071 5.28661 10 6.66732 10C8.04803 10 9.16732 8.88071 9.16732 7.5C9.16732 6.11929 8.04803 5 6.66732 5C5.28661 5 4.16732 6.11929 4.16732 7.5ZM6.66732 8.33334C7.12755 8.33334 7.50065 7.96024 7.50065 7.5C7.50065 7.03977 7.12755 6.66667 6.66732 6.66667C6.20708 6.66667 5.83398 7.03977 5.83398 7.5C5.83398 7.96024 6.20708 8.33334 6.66732 8.33334ZM8.43233 15L13.4323 5H11.5689L6.56894 15H8.43233Z" fill="#ECBA0B"/>
</g>
</svg>
