<svg width="20" height="20" viewBox="0 0 20 20" fill="none" xmlns="http://www.w3.org/2000/svg">
<g id="24 / basic / flame">
<path id="icon" fill-rule="evenodd" clip-rule="evenodd" d="M9.31328 9.6083C9.76865 8.96918 9.71783 8.29608 9.40208 7.08528C8.7776 4.69068 9.02627 3.37819 11.1791 1.8243L12.2298 1.06587L12.4839 2.33657C12.754 3.68701 13.1976 4.52225 14.3364 6.12886C14.3817 6.19268 14.3817 6.19268 14.4271 6.25678C16.0676 8.57118 16.6668 9.96635 16.6668 12.5C16.6668 15.5736 13.5596 18.3333 10.0001 18.3333C6.44045 18.3333 3.33344 15.574 3.33344 12.5C3.33344 12.4425 3.3335 12.4443 3.32377 12.1904C3.24847 10.2265 3.61162 8.68947 5.081 7.02988C5.39145 6.67924 5.74434 6.34223 6.14146 6.01975L7.01812 5.30788L7.43983 6.35548C7.75142 7.12955 8.11652 7.73805 8.52895 8.18459C8.87826 8.56279 9.13739 9.03839 9.31328 9.6083ZM6.32883 8.13471C5.19769 9.41227 4.92877 10.5505 4.9892 12.1265C5.00045 12.4199 5.0001 12.4096 5.0001 12.5C5.0001 14.6066 7.31976 16.6667 10.0001 16.6667C12.6802 16.6667 15.0001 14.6062 15.0001 12.5C15.0001 10.3818 14.5265 9.27919 13.0674 7.22058C13.0222 7.15681 13.0222 7.15681 12.9767 7.0927C12.0905 5.84259 11.5623 4.97298 11.2129 4.00043C10.6422 4.68431 10.6757 5.36449 11.0148 6.66471C11.6393 9.05931 11.3906 10.3718 9.23782 11.9257L8.01032 12.8117L7.9183 11.3006C7.85951 10.3352 7.64098 9.67962 7.30459 9.3154C6.97223 8.95556 6.67215 8.53428 6.40305 8.05232C6.37795 8.07971 6.35322 8.10717 6.32883 8.13471Z" fill="#D30127"/>
</g>
</svg>
